<svg id="Capa_1" enable-background="new 0 0 512 512" height="512" viewBox="0 0 512 512" width="512" xmlns="http://www.w3.org/2000/svg"><g><path d="m391 212v-122c0-49.629-40.371-90-90-90h-90c-49.629 0-90 40.371-90 90v122h-45v120c0 99.258 80.742 180 180 180s180-80.742 180-180v-120zm-120 147.237v77.763h-30v-77.763c-17.422-6.213-30-22.707-30-42.237 0-24.814 20.186-45 45-45s45 20.186 45 45c0 19.53-12.578 36.024-30 42.237zm-90-147.237v-122c0-16.538 13.462-30 30-30h90c16.538 0 30 13.462 30 30v122z"/><circle cx="256" cy="317" r="15"/></g></svg>