<svg id="Capa_1" enable-background="new 0 0 512 512" height="512" viewBox="0 0 512 512" width="512" xmlns="http://www.w3.org/2000/svg"><g><path d="m406 212v-107c0-57.897-47.103-105-105-105h-90c-57.897 0-105 47.103-105 105v107h-30v120c0 99.252 80.748 180 180 180s180-80.748 180-180v-120zm-270-107c0-41.355 33.645-75 75-75h90c41.355 0 75 33.645 75 75v107h-30v-107c0-24.813-20.187-45-45-45h-90c-24.813 0-45 20.187-45 45v107h-30zm180 107h-120v-107c0-8.271 6.729-15 15-15h90c8.271 0 15 6.729 15 15zm90 120c0 82.71-67.29 150-150 150s-150-67.29-150-150v-90h300z"/><path d="m241 359.42v77.58h30v-77.58c17.459-6.192 30-22.865 30-42.42 0-24.813-20.187-45-45-45s-45 20.187-45 45c0 19.555 12.541 36.228 30 42.42zm15-57.42c8.271 0 15 6.729 15 15s-6.729 15-15 15-15-6.729-15-15 6.729-15 15-15z"/></g></svg>